<?xml version="1.0" encoding="UTF-8" standalone="no"?>
<!-- Created with Inkscape (http://www.inkscape.org/) -->

<svg
   xmlns:dc="http://purl.org/dc/elements/1.1/"
   xmlns:cc="http://creativecommons.org/ns#"
   xmlns:rdf="http://www.w3.org/1999/02/22-rdf-syntax-ns#"
   xmlns:svg="http://www.w3.org/2000/svg"
   xmlns="http://www.w3.org/2000/svg"
   xmlns:sodipodi="http://sodipodi.sourceforge.net/DTD/sodipodi-0.dtd"
   xmlns:inkscape="http://www.inkscape.org/namespaces/inkscape"
   width="24in"
   height="29.59737in"
   viewBox="0 0 2160.0001 2663.7634"
   id="svg2"
   version="1.1"
   inkscape:version="0.91 r13725"
   sodipodi:docname="cupcake v2.svg">
  <defs
     id="defs4" />
  <sodipodi:namedview
     id="base"
     pagecolor="#ffffff"
     bordercolor="#666666"
     borderopacity="1.0"
     inkscape:pageopacity="0.0"
     inkscape:pageshadow="2"
     inkscape:zoom="0.175"
     inkscape:cx="1368.0645"
     inkscape:cy="1087.1132"
     inkscape:document-units="in"
     inkscape:current-layer="layer1"
     showgrid="false"
     units="in"
     fit-margin-top="0"
     fit-margin-left="0"
     fit-margin-right="0"
     fit-margin-bottom="0"
     inkscape:window-width="1600"
     inkscape:window-height="876"
     inkscape:window-x="0"
     inkscape:window-y="24"
     inkscape:window-maximized="1" />
  <metadata
     id="metadata7">
    <rdf:RDF>
      <cc:Work
         rdf:about="">
        <dc:format>image/svg+xml</dc:format>
        <dc:type
           rdf:resource="http://purl.org/dc/dcmitype/StillImage" />
        <dc:title></dc:title>
      </cc:Work>
    </rdf:RDF>
  </metadata>
  <g
     inkscape:label="Layer 1"
     inkscape:groupmode="layer"
     id="layer1"
     transform="translate(-3198.7863,2387.0264)">
    <path
       style="fill:none;fill-opacity:1;fill-rule:evenodd;stroke:#000000;stroke-width:11.25511169;stroke-linecap:butt;stroke-linejoin:miter;stroke-miterlimit:4;stroke-dasharray:none;stroke-opacity:1"
       d="m 3925.9541,-2215.1064 c 0,0 34.4579,-54.9756 57.7751,-77.0332 27.1614,-25.6944 58.9515,-47.5173 93.3288,-62.2193 31.1728,-13.3315 65.6494,-17.7307 99.2545,-22.2212 32.3373,-4.321 65.1665,-5.5283 97.7731,-4.4442 44.2007,1.4695 88.6886,5.1534 131.8455,14.814 22.401,5.0145 44.7619,11.7352 65.1822,22.2212 30.23,15.5237 58.0308,36.1607 82.959,59.2564 25.9723,24.0632 46.2015,53.6913 68.1448,81.4776 19.4645,24.6471 39.1706,49.2245 56.2937,75.5521 26.8824,41.3331 72.5891,128.8827 72.5891,128.8827 0,0 106.0054,23.0323 154.4876,46.2477 36.6889,17.5683 70.4559,41.7798 100.5615,69.1361 20.9111,19.0016 38.8537,41.3993 54.4708,64.946 17.7809,26.8088 33.6126,55.4487 43.9957,85.8963 9.8585,28.9093 13.0358,59.7701 16.7602,90.0863 2.8151,22.9153 3.4914,46.059 4.19,69.1361 0.2959,9.7722 0,29.3303 0,29.3303 l 0,0 c 0,0 27.654,16.1155 40.8532,25.1404 13.3743,9.1446 26.4623,18.7802 38.7581,29.3305 12.5557,10.7733 24.6358,22.1922 35.6155,34.568 12.2357,13.7914 23.0368,28.8295 33.5205,43.9956 11.2387,16.2581 22.1185,32.8447 31.4255,50.2808 8.8315,16.5453 16.2304,33.8554 23.0453,51.3283 6.8208,17.4879 13.7993,35.0852 17.8078,53.4232 4.1254,18.8728 5.6297,38.3061 6.2851,57.6134 0.5808,17.1139 0.4297,34.3917 -2.0951,51.3282 -2.4476,16.418 -6.966,32.561 -12.5701,48.1858 -7.015,19.5579 -16.3261,38.2773 -26.1879,56.5658 -11.3131,20.9801 -23.7732,43.59776 -36.282,65.04163 -12.7088,21.78662 -24.6954,44.10506 -39.3767,64.6143 -23.0763,32.23672 -46.3868,65.18201 -76.1864,91.3298 -31.3971,27.5495 -57.3727,34.89958 -105.8437,67.08108 l -186.2035,908.25455 c -176.2878,70.73735 -115.5207,52.95085 -176.2878,70.73735 -68.5024,20.05056 -139.3391,32.88679 -210.3604,39.9981 -84.026,8.41346 -168.9922,7.41165 -253.3212,2.96282 -59.0857,-3.11709 -117.8161,-11.69027 -176.2879,-20.73975 -51.6813,-7.99854 0,0 -154.0667,-29.62821 -131.2831,-25.24672 0,0 -130.3642,-29.62822 l -299.245,-928.84456 c -121.7798,-85.25797 -127.8037,-83.24675 -174.196,-155.92848 -19.1955,-30.07305 -27.3309,-64.13418 -38.3083,-97.17678 -10.0284,-30.18613 -15.3901,-61.32963 -25.0837,-92.06923 -9.5567,-30.3055 -15.2568,-61.7938 -19.9028,-93.2289 -3.6885,-24.9565 -6.2047,-50.1937 -6.2851,-75.4212 -0.073,-22.7631 0.2615,-45.8758 5.2375,-68.0885 5.1458,-22.9707 14.395,-45.0491 25.1405,-65.9935 11.2726,-21.9721 25.1218,-42.7672 40.853,-61.8033 13.3698,-16.1787 28.0822,-31.6335 45.0432,-43.9957 33.8281,-24.6558 111.0367,-58.661 111.0367,-58.661 0,0 -4.8752,-91.8911 5.2375,-136.1769 7.2061,-31.5573 22.1734,-61.2407 38.7582,-89.0388 14.7805,-24.7744 33.0312,-47.6828 53.4232,-68.0886 17.5779,-17.5899 35.9581,-35.9435 58.6609,-46.0907 27.5149,-12.2981 59.0865,-12.3704 89.0388,-15.7127 29.1827,-3.2565 58.6331,-3.6214 87.9914,-4.19 39.4505,-0.7643 78.9116,0.8729 118.3691,1.0474 19.2043,0.085 38.5702,2.4833 57.6134,0 17.5528,-2.2888 34.8212,-7.226 51.3283,-13.6176 18.3503,-7.1054 36.2478,-15.9613 52.3758,-27.2355 13.5717,-9.4873 26.0254,-20.8304 36.663,-33.5205 10.8902,-12.9911 20.4218,-27.4258 27.2354,-42.948 5.9577,-13.5724 9.7899,-28.2275 11.5227,-42.9482 1.4701,-12.4889 1.2027,-25.3386 -1.0475,-37.7107 -1.9167,-10.5382 -4.3913,-21.5623 -10.4752,-30.3779 -7.7448,-11.2226 -19.8687,-18.951 -31.4255,-26.1879 -10.0661,-6.3035 -21.3259,-10.5657 -32.4729,-14.6651 -38.6062,-14.1977 -118.5756,-34.1755 -118.5756,-34.1755 z"
       id="path4201"
       inkscape:connector-curvature="0"
       sodipodi:nodetypes="cssssssssscsssssssssssssssssssaaaccsssssccsassssssscsssssssssssssssssc" />
  </g>
</svg>
